<svg xmlns="http://www.w3.org/2000/svg" viewBox="0 0 24 24" fill="none">
  <path d="M5.5 9.5A1.5 1.5 0 1 1 7 8h3v1.5A1.5 1.5 0 0 1 8.5 11H7A1.5 1.5 0 0 1 5.5 9.5z" fill="#E01E5A"/>
  <path d="M14.5 9.5A1.5 1.5 0 0 1 16 8a1.5 1.5 0 0 1 1.5 1.5V14A1.5 1.5 0 0 1 16 15.5 1.5 1.5 0 0 1 14.5 14z" fill="#2EB67D"/>
  <path d="M9.5 18.5A1.5 1.5 0 0 1 8 17h3v1.5A1.5 1.5 0 0 1 9.5 20H8a1.5 1.5 0 0 1-1.5-1.5z" fill="#ECB22E" transform="rotate(90 12 12)"/>
  <path d="M9.5 5.5A1.5 1.5 0 0 1 11 4a1.5 1.5 0 0 1 1.5 1.5V10A1.5 1.5 0 0 1 11 11.5 1.5 1.5 0 0 1 9.5 10z" fill="#36C5F0"/>
</svg>
